<svg id="svg" version="1.1" xmlns="http://www.w3.org/2000/svg" xmlns:xlink="http://www.w3.org/1999/xlink" width="400" height="400" viewBox="0, 0, 400,400"><g id="svgg"><path id="path0" d="M81.804 48.070 C 75.681 49.238,70.845 53.523,68.341 60.000 C 67.536 62.084,67.536 219.116,68.341 221.200 C 70.553 226.922,74.205 230.703,79.400 232.650 C 81.334 233.375,84.986 233.404,190.800 233.522 C 308.252 233.652,302.462 233.751,307.000 231.545 C 311.380 229.416,313.817 226.524,316.053 220.800 C 316.864 218.725,316.869 62.497,316.059 60.400 C 313.394 53.505,308.578 49.213,302.181 48.030 C 299.151 47.470,84.747 47.509,81.804 48.070 M222.957 75.033 C 223.316 75.967,223.240 85.317,222.870 85.901 C 222.616 86.300,208.092 86.382,151.576 86.301 L 80.600 86.200 80.489 80.300 L 80.379 74.400 151.547 74.400 C 216.073 74.400,222.737 74.459,222.957 75.033 M254.311 98.337 C 254.697 98.581,254.795 100.083,254.711 104.431 L 254.600 110.200 167.600 110.200 L 80.600 110.200 80.488 104.619 C 80.427 101.550,80.466 98.805,80.576 98.519 C 80.805 97.922,253.372 97.741,254.311 98.337 M199.200 128.001 L 199.200 134.003 139.900 133.901 L 80.600 133.800 80.489 127.900 L 80.379 122.000 139.789 122.000 L 199.200 122.000 199.200 128.001 M238.720 146.080 C 239.503 146.863,239.374 156.569,238.570 157.372 C 238.001 157.942,230.395 157.992,159.270 157.901 L 80.600 157.800 80.488 152.219 C 80.427 149.150,80.466 146.405,80.576 146.119 C 80.857 145.385,237.986 145.346,238.720 146.080 M92.311 175.500 L 92.200 181.400 86.400 181.400 L 80.600 181.400 80.489 175.500 L 80.379 169.600 86.400 169.600 L 92.421 169.600 92.311 175.500 " stroke="none" fill="#04cfdb" fill-rule="evenodd"></path><path id="path1" d="M38.500 0.288 C 37.785 0.377,37.200 0.619,37.200 0.825 C 37.200 1.031,36.784 1.200,36.275 1.200 C 35.767 1.200,34.964 1.560,34.492 2.000 C 34.020 2.440,33.449 2.800,33.224 2.800 C 32.835 2.800,31.327 4.007,29.450 5.822 C 27.845 7.373,26.798 8.810,25.747 10.903 C 25.169 12.056,24.539 13.313,24.348 13.695 C 24.156 14.077,24.000 14.932,24.000 15.595 C 24.000 16.258,23.820 16.800,23.600 16.800 C 23.334 16.800,23.200 59.000,23.200 142.600 L 23.200 268.400 11.600 268.400 L 0.000 268.400 0.000 334.200 L 0.000 400.000 200.000 400.000 L 400.000 400.000 400.000 334.200 L 400.000 268.400 388.400 268.400 L 376.800 268.400 376.800 142.600 C 376.800 59.000,376.666 16.800,376.400 16.800 C 376.180 16.800,376.000 16.181,376.000 15.424 C 376.000 14.667,375.843 13.950,375.652 13.832 C 375.460 13.714,375.194 13.071,375.061 12.405 C 374.833 11.263,374.052 9.964,372.200 7.645 C 370.680 5.741,367.387 2.800,366.776 2.800 C 366.551 2.800,365.980 2.440,365.508 2.000 C 365.036 1.560,364.248 1.200,363.758 1.200 C 363.268 1.200,362.792 0.975,362.700 0.700 C 362.541 0.224,42.260 -0.183,38.500 0.288 M357.004 12.106 C 360.555 13.199,363.670 16.335,364.206 19.357 C 364.327 20.041,364.375 76.580,364.313 145.000 L 364.200 269.400 200.000 269.400 L 35.800 269.400 35.685 145.400 C 35.621 77.200,35.674 20.660,35.801 19.755 C 36.239 16.643,39.388 13.184,42.731 12.142 C 44.948 11.451,354.761 11.415,357.004 12.106 M79.200 36.440 C 75.638 37.375,74.396 37.837,71.571 39.274 C 67.243 41.476,62.051 46.238,60.209 49.693 C 59.943 50.192,59.364 51.233,58.922 52.007 C 57.874 53.842,56.630 57.583,56.057 60.624 C 55.405 64.081,55.405 217.119,56.057 220.576 C 58.170 231.790,66.250 241.086,76.400 243.980 C 77.390 244.262,78.722 244.652,79.360 244.847 C 81.124 245.384,302.899 245.307,304.954 244.768 C 308.984 243.712,309.945 243.368,312.276 242.152 C 320.029 238.108,325.321 231.608,327.542 223.400 C 328.716 219.063,328.800 213.504,328.800 140.600 C 328.800 67.696,328.716 62.137,327.542 57.800 C 324.770 47.557,316.635 39.516,306.307 36.810 C 302.911 35.920,82.546 35.561,79.200 36.440 M304.404 48.432 C 310.438 50.413,315.149 55.508,316.395 61.400 C 316.686 62.777,316.784 87.894,316.709 142.000 L 316.600 220.600 315.284 223.247 C 312.937 227.966,309.151 231.332,304.441 232.886 C 301.477 233.864,83.561 234.004,80.353 233.031 C 73.913 231.076,69.417 226.277,67.771 219.600 C 66.965 216.333,66.965 64.867,67.771 61.600 C 69.434 54.857,74.240 49.861,80.800 48.057 C 81.679 47.815,123.036 47.659,192.034 47.636 L 301.868 47.600 304.404 48.432 M80.643 75.032 C 80.284 75.967,80.359 85.317,80.730 85.901 C 80.984 86.300,95.468 86.382,151.824 86.301 L 222.600 86.200 222.600 80.400 L 222.600 74.600 151.743 74.499 C 87.389 74.407,80.864 74.456,80.643 75.032 M80.668 98.666 C 80.520 98.813,80.400 101.424,80.400 104.468 L 80.400 110.002 167.500 109.901 L 254.600 109.800 254.600 104.200 L 254.600 98.600 167.768 98.499 C 120.010 98.444,80.815 98.519,80.668 98.666 M80.575 122.521 C 80.465 122.808,80.426 125.373,80.487 128.221 L 80.600 133.400 139.900 133.501 L 199.200 133.603 199.200 127.801 L 199.200 122.000 139.987 122.000 C 91.705 122.000,80.738 122.096,80.575 122.521 M80.575 146.521 C 80.465 146.808,80.426 149.373,80.487 152.221 L 80.600 157.400 159.600 157.400 L 238.600 157.400 238.711 151.700 L 238.822 146.000 159.798 146.000 C 95.238 146.000,80.738 146.095,80.575 146.521 M80.667 169.867 C 80.520 170.013,80.400 172.623,80.400 175.667 L 80.400 181.200 86.200 181.200 L 92.000 181.200 92.000 175.400 L 92.000 169.600 86.467 169.600 C 83.423 169.600,80.813 169.720,80.667 169.867 M340.800 175.389 L 340.800 181.200 346.611 181.200 L 352.422 181.200 352.311 175.500 L 352.200 169.800 346.500 169.689 L 340.800 169.578 340.800 175.389 M340.800 207.200 L 340.800 212.822 346.500 212.711 L 352.200 212.600 352.200 207.200 L 352.200 201.800 346.500 201.689 L 340.800 201.578 340.800 207.200 M388.301 334.700 L 388.200 388.200 283.200 388.200 L 178.200 388.200 178.094 376.889 L 177.988 365.578 172.294 365.689 L 166.600 365.800 166.400 377.000 L 166.200 388.200 160.400 388.200 L 154.600 388.200 154.494 377.106 L 154.387 366.012 153.494 365.790 C 153.002 365.668,150.440 365.620,147.800 365.684 L 143.000 365.800 142.893 376.780 C 142.769 389.639,143.450 388.386,136.580 388.394 C 129.793 388.402,130.400 389.569,130.400 376.509 L 130.400 365.578 124.700 365.689 L 119.000 365.800 118.800 377.000 L 118.600 388.200 112.800 388.200 L 107.000 388.200 106.800 377.000 L 106.600 365.800 101.000 365.800 L 95.400 365.800 95.200 377.000 L 95.000 388.200 89.292 388.311 C 84.938 388.396,83.542 388.301,83.408 387.911 C 83.311 387.630,83.090 382.540,82.916 376.600 L 82.600 365.800 77.200 365.800 L 71.800 365.800 71.478 376.600 C 71.302 382.540,71.082 387.625,70.991 387.900 C 70.716 388.728,59.763 388.602,59.443 387.767 C 59.309 387.419,59.200 382.284,59.200 376.356 L 59.200 365.578 53.500 365.689 L 47.800 365.800 47.600 377.000 L 47.400 388.200 41.600 388.200 L 35.800 388.200 35.694 377.106 L 35.587 366.012 34.694 365.790 C 34.202 365.668,31.640 365.620,29.000 365.684 L 24.200 365.800 24.093 376.567 C 24.023 383.693,23.837 387.514,23.544 387.867 C 22.839 388.717,12.172 388.626,11.843 387.767 C 11.510 386.900,11.534 281.800,11.867 281.467 C 12.013 281.320,96.794 281.200,200.268 281.200 L 388.403 281.200 388.301 334.700 M24.006 310.500 C 24.009 320.015,24.156 328.027,24.332 328.304 C 24.584 328.700,29.152 328.785,45.826 328.704 L 67.000 328.600 67.104 310.900 L 67.208 293.200 45.604 293.200 L 24.000 293.200 24.006 310.500 M55.408 305.700 C 55.531 306.195,55.579 308.850,55.516 311.600 L 55.400 316.600 45.600 316.600 L 35.800 316.600 35.684 311.600 C 35.621 308.850,35.669 306.195,35.792 305.700 L 36.015 304.800 45.600 304.800 L 55.185 304.800 55.408 305.700 M211.375 309.720 C 211.265 310.007,211.226 312.573,211.287 315.421 L 211.400 320.600 290.292 320.701 L 369.184 320.802 369.408 319.901 C 369.531 319.405,369.580 316.840,369.516 314.200 L 369.400 309.400 290.488 309.299 C 225.870 309.216,211.539 309.293,211.375 309.720 M227.467 333.067 C 227.320 333.213,227.200 335.823,227.200 338.867 L 227.200 344.400 233.000 344.400 L 238.800 344.400 238.800 338.843 C 238.800 334.144,238.702 333.248,238.167 333.043 C 237.306 332.712,227.800 332.733,227.467 333.067 M322.271 333.062 C 322.122 333.211,322.000 335.823,322.000 338.867 L 322.000 344.400 337.811 344.400 L 353.622 344.400 353.511 338.700 L 353.400 333.000 337.971 332.895 C 329.486 332.838,322.421 332.913,322.271 333.062 M24.179 342.510 C 24.067 342.803,24.026 345.373,24.087 348.221 L 24.200 353.400 29.690 353.511 C 36.203 353.643,35.690 354.217,35.516 347.000 L 35.400 342.200 29.892 342.089 C 25.596 342.002,24.339 342.094,24.179 342.510 M47.867 342.267 C 47.533 342.600,47.512 352.106,47.843 352.967 C 48.048 353.502,48.944 353.600,53.643 353.600 L 59.200 353.600 59.200 347.800 L 59.200 342.000 53.667 342.000 C 50.623 342.000,48.013 342.120,47.867 342.267 M71.775 342.521 C 71.665 342.808,71.626 345.373,71.687 348.221 L 71.800 353.400 77.300 353.511 L 82.800 353.623 82.800 347.811 L 82.800 342.000 77.387 342.000 C 73.309 342.000,71.926 342.128,71.775 342.521 M95.467 342.267 C 95.084 342.649,95.148 352.499,95.537 353.112 C 95.781 353.496,97.204 353.596,101.231 353.512 L 106.600 353.400 106.711 347.700 L 106.822 342.000 101.278 342.000 C 98.228 342.000,95.613 342.120,95.467 342.267 M118.975 342.521 C 118.865 342.808,118.826 345.373,118.887 348.221 L 119.000 353.400 124.700 353.511 L 130.400 353.622 130.400 347.811 L 130.400 342.000 124.787 342.000 C 120.545 342.000,119.126 342.127,118.975 342.521 M142.979 342.510 C 142.867 342.803,142.826 345.373,142.887 348.221 L 143.000 353.400 148.600 353.400 L 154.200 353.400 154.200 347.800 L 154.200 342.200 148.692 342.089 C 144.396 342.002,143.139 342.094,142.979 342.510 M166.667 342.267 C 166.333 342.600,166.312 352.106,166.643 352.967 C 166.848 353.502,167.744 353.600,172.443 353.600 L 178.000 353.600 178.000 347.800 L 178.000 342.000 172.467 342.000 C 169.423 342.000,166.813 342.120,166.667 342.267 " stroke="none" fill="#060707" fill-rule="evenodd"></path><path id="path2" d="M44.000 12.493 C 40.619 13.104,38.400 14.852,36.885 18.096 L 36.000 19.991 36.000 137.532 C 36.000 202.179,36.118 258.071,36.263 261.736 L 36.526 268.400 200.000 268.400 L 363.474 268.400 363.737 261.736 C 363.882 258.071,364.000 202.179,364.000 137.532 L 364.000 19.991 363.115 18.096 C 361.536 14.716,359.388 13.109,355.567 12.453 C 352.092 11.855,47.308 11.895,44.000 12.493 M306.200 36.081 C 310.533 37.471,312.687 38.474,315.800 40.551 C 319.117 42.764,324.382 48.225,324.395 49.467 C 324.398 49.723,324.535 49.993,324.700 50.067 C 324.865 50.140,325.425 51.100,325.944 52.200 C 326.463 53.300,327.048 54.513,327.244 54.895 C 327.440 55.277,327.600 55.941,327.600 56.371 C 327.600 56.801,327.756 57.249,327.947 57.367 C 328.855 57.929,328.962 66.637,328.962 140.600 C 328.962 214.563,328.855 223.271,327.947 223.833 C 327.756 223.951,327.600 224.399,327.600 224.829 C 327.600 225.259,327.439 225.923,327.242 226.305 C 327.045 226.687,326.319 228.170,325.628 229.600 C 322.961 235.123,317.631 240.243,311.600 243.073 C 309.773 243.930,308.827 244.274,305.600 245.254 C 303.045 246.029,79.515 246.075,78.740 245.300 C 78.465 245.025,77.747 244.800,77.144 244.800 C 76.541 244.800,75.936 244.620,75.800 244.400 C 75.664 244.180,75.291 244.000,74.972 244.000 C 74.233 244.000,70.644 242.342,70.467 241.919 C 70.393 241.743,70.121 241.600,69.861 241.600 C 69.451 241.600,64.935 238.183,63.798 237.013 C 62.904 236.094,60.166 232.539,59.662 231.645 C 59.367 231.120,58.795 230.103,58.392 229.386 C 57.563 227.910,56.588 225.202,55.761 222.080 C 54.940 218.980,54.948 62.540,55.770 59.200 C 56.502 56.221,57.508 53.388,58.392 51.814 C 58.795 51.097,59.367 50.080,59.662 49.555 C 59.958 49.030,60.291 48.510,60.402 48.400 C 60.514 48.290,61.078 47.570,61.657 46.800 C 66.007 41.012,73.759 36.527,81.000 35.607 C 86.357 34.927,304.029 35.385,306.200 36.081 M352.600 175.400 L 352.600 181.400 346.500 181.510 L 340.400 181.621 340.400 175.677 C 340.400 168.502,339.747 169.157,346.777 169.290 L 352.600 169.400 352.600 175.400 M352.600 207.200 L 352.600 213.400 346.600 213.400 L 340.600 213.400 340.489 207.618 C 340.343 200.055,339.695 200.758,346.692 200.889 L 352.600 201.000 352.600 207.200 M12.400 327.736 C 12.400 353.111,12.518 376.871,12.663 380.536 L 12.926 387.200 18.063 387.200 L 23.200 387.200 23.200 376.649 C 23.200 363.970,22.493 365.142,30.055 365.289 L 35.800 365.400 36.050 372.600 C 36.188 376.560,36.323 381.465,36.350 383.500 L 36.400 387.200 41.600 387.200 L 46.800 387.200 46.851 383.700 C 46.879 381.775,47.014 376.870,47.151 372.800 L 47.400 365.400 53.400 365.400 L 59.400 365.400 59.648 373.000 C 59.784 377.180,59.919 382.085,59.948 383.900 L 60.000 387.200 65.394 387.200 L 70.787 387.200 70.894 376.300 L 71.000 365.400 76.400 365.285 C 84.131 365.120,83.600 364.791,83.600 369.744 C 83.600 372.014,83.718 376.871,83.863 380.536 L 84.126 387.200 89.020 387.200 L 93.914 387.200 94.185 382.500 C 94.335 379.915,94.579 375.010,94.729 371.600 L 95.000 365.400 101.000 365.400 L 107.000 365.400 107.249 372.800 C 107.386 376.870,107.521 381.775,107.549 383.700 L 107.600 387.200 113.000 387.200 L 118.400 387.200 118.400 376.833 C 118.400 363.834,117.676 365.200,124.563 365.200 C 131.463 365.200,131.200 365.009,131.200 370.016 C 131.200 372.137,131.318 376.871,131.463 380.536 L 131.726 387.200 136.863 387.200 L 142.000 387.200 142.000 376.649 C 142.000 363.970,141.293 365.142,148.855 365.289 L 154.600 365.400 154.849 372.800 C 154.986 376.870,155.121 381.775,155.149 383.700 L 155.200 387.200 160.337 387.200 L 165.474 387.200 165.737 380.536 C 165.882 376.871,166.003 372.146,166.006 370.036 C 166.014 364.863,165.616 365.157,172.431 365.289 L 178.200 365.400 178.310 371.900 C 178.376 375.781,178.577 378.400,178.810 378.400 C 179.040 378.400,179.200 380.208,179.200 382.800 L 179.200 387.200 283.200 387.200 L 387.200 387.200 387.200 382.824 C 387.200 380.337,387.373 378.340,387.600 378.200 C 387.863 378.037,388.000 361.463,388.000 329.776 L 388.000 281.600 200.200 281.600 L 12.400 281.600 12.400 327.736 M67.400 311.000 L 67.400 329.000 45.845 329.104 C 30.260 329.178,24.139 329.082,23.745 328.755 C 23.162 328.270,22.895 293.639,23.470 293.063 C 23.619 292.915,33.564 292.840,45.570 292.897 L 67.400 293.000 67.400 311.000 M369.510 314.900 L 369.400 321.400 290.200 321.400 L 211.000 321.400 210.889 315.418 C 210.828 312.127,210.867 309.202,210.976 308.918 C 211.138 308.497,225.954 308.400,290.397 308.400 L 369.620 308.400 369.510 314.900 M239.110 338.710 L 239.221 344.820 232.910 344.710 L 226.600 344.600 226.489 338.831 C 226.354 331.859,225.809 332.373,233.200 332.500 L 239.000 332.600 239.110 338.710 M353.910 338.651 C 354.019 344.650,354.013 344.703,353.110 344.945 C 351.489 345.380,323.209 345.233,322.374 344.786 C 321.586 344.364,321.132 333.402,321.871 332.662 C 322.020 332.513,329.265 332.438,337.971 332.495 L 353.800 332.600 353.910 338.651 M35.367 341.443 C 35.906 341.650,36.000 342.598,36.000 347.853 L 36.000 354.020 29.700 353.910 L 23.400 353.800 23.288 348.003 C 23.190 342.902,23.259 342.146,23.865 341.703 C 24.583 341.178,34.116 340.963,35.367 341.443 M59.510 347.710 L 59.620 354.021 53.510 353.910 L 47.400 353.800 47.289 348.055 C 47.146 340.687,46.703 341.151,53.758 341.289 L 59.400 341.400 59.510 347.710 M83.162 341.755 C 83.474 342.131,83.587 344.159,83.511 348.055 L 83.400 353.800 77.200 353.800 L 71.000 353.800 70.889 348.055 C 70.747 340.743,70.327 341.200,77.200 341.200 C 81.402 341.200,82.811 341.331,83.162 341.755 M107.110 347.710 L 107.220 354.021 101.110 353.910 L 95.000 353.800 94.889 347.830 C 94.755 340.640,94.224 341.172,101.400 341.300 L 107.000 341.400 107.110 347.710 M130.786 341.974 C 131.225 342.795,131.368 352.296,130.957 353.367 C 130.751 353.905,129.824 354.000,124.800 354.000 C 117.805 354.000,118.400 354.582,118.400 347.741 C 118.400 340.837,118.045 341.200,124.800 341.200 C 129.899 341.200,130.407 341.266,130.786 341.974 M154.167 341.443 C 154.706 341.650,154.800 342.597,154.800 347.843 L 154.800 354.000 148.643 354.000 C 141.349 354.000,142.000 354.648,142.000 347.387 C 142.000 342.716,142.089 341.988,142.700 341.632 C 143.448 341.196,153.109 341.037,154.167 341.443 M178.310 347.710 L 178.420 354.021 172.310 353.910 L 166.200 353.800 166.089 348.055 C 165.946 340.687,165.503 341.151,172.558 341.289 L 178.200 341.400 178.310 347.710 " stroke="none" fill="#d8c8b7" fill-rule="evenodd"></path><path id="path3" d="M35.792 305.700 C 35.669 306.195,35.621 308.850,35.684 311.600 L 35.800 316.600 45.600 316.600 L 55.400 316.600 55.516 311.600 C 55.579 308.850,55.531 306.195,55.408 305.700 L 55.185 304.800 45.600 304.800 L 36.015 304.800 35.792 305.700 " stroke="none" fill="#e54f5d" fill-rule="evenodd"></path><path id="path4" d="M42.731 12.142 C 39.388 13.184,36.239 16.643,35.801 19.755 C 35.674 20.660,35.621 77.200,35.685 145.400 L 35.800 269.400 200.000 269.400 L 364.200 269.400 364.313 145.000 C 364.375 76.580,364.327 20.041,364.206 19.357 C 363.670 16.335,360.555 13.199,357.004 12.106 C 354.761 11.415,44.948 11.451,42.731 12.142 M355.567 12.453 C 359.388 13.109,361.536 14.716,363.115 18.096 L 364.000 19.991 364.000 137.532 C 364.000 202.179,363.882 258.071,363.737 261.736 L 363.474 268.400 200.000 268.400 L 36.526 268.400 36.263 261.736 C 36.118 258.071,36.000 202.179,36.000 137.532 L 36.000 19.991 36.885 18.096 C 38.400 14.852,40.619 13.104,44.000 12.493 C 47.308 11.895,352.092 11.855,355.567 12.453 M81.000 35.607 C 73.759 36.527,66.007 41.012,61.657 46.800 C 61.078 47.570,60.514 48.290,60.402 48.400 C 60.291 48.510,59.958 49.030,59.662 49.555 C 59.367 50.080,58.795 51.097,58.392 51.814 C 57.508 53.388,56.502 56.221,55.770 59.200 C 54.948 62.540,54.940 218.980,55.761 222.080 C 56.588 225.202,57.563 227.910,58.392 229.386 C 58.795 230.103,59.367 231.120,59.662 231.645 C 61.533 234.966,68.328 241.600,69.861 241.600 C 70.121 241.600,70.393 241.743,70.467 241.919 C 70.644 242.342,74.233 244.000,74.972 244.000 C 75.291 244.000,75.664 244.180,75.800 244.400 C 75.936 244.620,76.541 244.800,77.144 244.800 C 77.747 244.800,78.465 245.025,78.740 245.300 C 79.515 246.075,303.045 246.029,305.600 245.254 C 308.827 244.274,309.773 243.930,311.600 243.073 C 317.631 240.243,322.961 235.123,325.628 229.600 C 326.319 228.170,327.045 226.687,327.242 226.305 C 327.439 225.923,327.600 225.259,327.600 224.829 C 327.600 224.399,327.756 223.951,327.947 223.833 C 328.855 223.271,328.962 214.563,328.962 140.600 C 328.962 66.637,328.855 57.929,327.947 57.367 C 327.756 57.249,327.600 56.801,327.600 56.371 C 327.600 55.941,327.440 55.277,327.244 54.895 C 327.048 54.513,326.463 53.300,325.944 52.200 C 325.425 51.100,324.865 50.140,324.700 50.067 C 324.535 49.993,324.398 49.723,324.395 49.467 C 324.382 48.225,319.117 42.764,315.800 40.551 C 312.687 38.474,310.533 37.471,306.200 36.081 C 304.029 35.385,86.357 34.927,81.000 35.607 M306.307 36.810 C 316.635 39.516,324.770 47.557,327.542 57.800 C 328.716 62.137,328.800 67.696,328.800 140.600 C 328.800 213.504,328.716 219.063,327.542 223.400 C 325.321 231.608,320.029 238.108,312.276 242.152 C 309.945 243.368,308.984 243.712,304.954 244.768 C 302.899 245.307,81.124 245.384,79.360 244.847 C 78.722 244.652,77.390 244.262,76.400 243.980 C 66.250 241.086,58.170 231.790,56.057 220.576 C 55.405 217.119,55.405 64.081,56.057 60.624 C 56.630 57.583,57.874 53.842,58.922 52.007 C 59.364 51.233,59.943 50.192,60.209 49.693 C 62.051 46.238,67.243 41.476,71.571 39.274 C 74.396 37.837,75.638 37.375,79.200 36.440 C 82.546 35.561,302.911 35.920,306.307 36.810 M67.396 140.600 C 67.396 183.280,67.443 200.681,67.500 179.268 C 67.557 157.856,67.557 122.936,67.500 101.668 C 67.443 80.401,67.396 97.920,67.396 140.600 M222.957 80.400 C 222.957 83.370,223.020 84.585,223.097 83.100 C 223.174 81.615,223.174 79.185,223.097 77.700 C 223.020 76.215,222.957 77.430,222.957 80.400 M80.662 98.300 C 80.494 98.571,139.071 98.570,222.800 98.297 C 240.070 98.241,215.196 98.151,167.524 98.098 C 119.852 98.044,80.764 98.135,80.662 98.300 M167.600 110.000 L 80.600 110.203 167.476 110.301 C 225.069 110.367,254.436 110.265,254.600 110.000 C 254.736 109.780,254.792 109.644,254.724 109.699 C 254.656 109.753,215.450 109.889,167.600 110.000 M80.741 133.701 C 80.907 133.867,107.673 133.957,140.221 133.901 L 199.400 133.800 139.920 133.600 C 107.206 133.490,80.576 133.536,80.741 133.701 M80.662 145.900 C 80.494 146.171,134.615 146.170,210.200 145.897 C 225.820 145.841,203.106 145.751,159.724 145.697 C 116.342 145.644,80.764 145.735,80.662 145.900 M238.957 151.600 C 238.957 154.570,239.020 155.785,239.097 154.300 C 239.174 152.815,239.174 150.385,239.097 148.900 C 239.020 147.415,238.957 148.630,238.957 151.600 M80.741 157.701 C 80.907 157.867,116.403 157.957,159.621 157.901 L 238.200 157.800 159.320 157.600 C 115.936 157.490,80.575 157.535,80.741 157.701 M340.677 169.456 C 340.525 169.609,340.400 172.408,340.400 175.677 L 340.400 181.621 346.500 181.510 L 352.600 181.400 352.600 175.400 L 352.600 169.400 346.777 169.290 C 343.574 169.229,340.829 169.304,340.677 169.456 M92.088 175.289 L 92.000 181.178 86.300 181.301 L 80.600 181.424 86.313 181.512 C 93.070 181.616,92.462 182.279,92.300 174.981 L 92.175 169.400 92.088 175.289 M352.311 175.500 L 352.422 181.200 346.611 181.200 L 340.800 181.200 340.800 175.389 L 340.800 169.578 346.500 169.689 L 352.200 169.800 352.311 175.500 M340.580 201.308 C 340.468 201.599,340.427 204.439,340.489 207.618 L 340.600 213.400 346.600 213.400 L 352.600 213.400 352.600 207.200 L 352.600 201.000 346.692 200.889 C 342.081 200.803,340.739 200.895,340.580 201.308 M352.200 207.200 L 352.200 212.600 346.500 212.711 L 340.800 212.822 340.800 207.200 L 340.800 201.578 346.500 201.689 L 352.200 201.800 352.200 207.200 M11.867 281.467 C 11.534 281.800,11.510 386.900,11.843 387.767 C 12.172 388.626,22.839 388.717,23.544 387.867 C 23.837 387.514,24.023 383.693,24.093 376.567 L 24.200 365.800 29.000 365.684 C 31.640 365.620,34.202 365.668,34.694 365.790 L 35.587 366.012 35.694 377.106 L 35.800 388.200 41.600 388.200 L 47.400 388.200 47.600 377.000 L 47.800 365.800 53.500 365.689 L 59.200 365.578 59.200 376.356 C 59.200 382.284,59.309 387.419,59.443 387.767 C 59.763 388.602,70.716 388.728,70.991 387.900 C 71.082 387.625,71.302 382.540,71.478 376.600 L 71.800 365.800 77.200 365.800 L 82.600 365.800 82.916 376.600 C 83.090 382.540,83.311 387.630,83.408 387.911 C 83.542 388.301,84.938 388.396,89.292 388.311 L 95.000 388.200 95.200 377.000 L 95.400 365.800 101.000 365.800 L 106.600 365.800 106.800 377.000 L 107.000 388.200 112.800 388.200 L 118.600 388.200 118.800 377.000 L 119.000 365.800 124.700 365.689 L 130.400 365.578 130.400 376.509 C 130.400 389.569,129.793 388.402,136.580 388.394 C 143.450 388.386,142.769 389.639,142.893 376.780 L 143.000 365.800 147.800 365.684 C 150.440 365.620,153.002 365.668,153.494 365.790 L 154.387 366.012 154.494 377.106 L 154.600 388.200 160.400 388.200 L 166.200 388.200 166.400 377.000 L 166.600 365.800 172.294 365.689 L 177.988 365.578 178.094 376.889 L 178.200 388.200 283.200 388.200 L 388.200 388.200 388.301 334.700 L 388.403 281.200 200.268 281.200 C 96.794 281.200,12.013 281.320,11.867 281.467 M388.000 329.776 C 388.000 361.463,387.863 378.037,387.600 378.200 C 387.373 378.340,387.200 380.337,387.200 382.824 L 387.200 387.200 283.200 387.200 L 179.200 387.200 179.200 382.800 C 179.200 380.208,179.040 378.400,178.810 378.400 C 178.577 378.400,178.376 375.781,178.310 371.900 L 178.200 365.400 172.431 365.289 C 165.616 365.157,166.014 364.863,166.006 370.036 C 166.003 372.146,165.882 376.871,165.737 380.536 L 165.474 387.200 160.337 387.200 L 155.200 387.200 155.149 383.700 C 155.121 381.775,154.986 376.870,154.849 372.800 L 154.600 365.400 148.855 365.289 C 141.293 365.142,142.000 363.970,142.000 376.649 L 142.000 387.200 136.863 387.200 L 131.726 387.200 131.463 380.536 C 131.318 376.871,131.200 372.137,131.200 370.016 C 131.200 365.009,131.463 365.200,124.563 365.200 C 117.676 365.200,118.400 363.834,118.400 376.833 L 118.400 387.200 113.000 387.200 L 107.600 387.200 107.549 383.700 C 107.521 381.775,107.386 376.870,107.249 372.800 L 107.000 365.400 101.000 365.400 L 95.000 365.400 94.729 371.600 C 94.579 375.010,94.335 379.915,94.185 382.500 L 93.914 387.200 89.020 387.200 L 84.126 387.200 83.863 380.536 C 83.718 376.871,83.600 372.014,83.600 369.744 C 83.600 364.791,84.131 365.120,76.400 365.285 L 71.000 365.400 70.894 376.300 L 70.787 387.200 65.394 387.200 L 60.000 387.200 59.948 383.900 C 59.919 382.085,59.784 377.180,59.648 373.000 L 59.400 365.400 53.400 365.400 L 47.400 365.400 47.151 372.800 C 47.014 376.870,46.879 381.775,46.851 383.700 L 46.800 387.200 41.600 387.200 L 36.400 387.200 36.350 383.500 C 36.323 381.465,36.188 376.560,36.050 372.600 L 35.800 365.400 30.055 365.289 C 22.493 365.142,23.200 363.970,23.200 376.649 L 23.200 387.200 18.063 387.200 L 12.926 387.200 12.663 380.536 C 12.518 376.871,12.400 353.111,12.400 327.736 L 12.400 281.600 200.200 281.600 L 388.000 281.600 388.000 329.776 M23.470 293.063 C 22.895 293.639,23.162 328.270,23.745 328.755 C 24.139 329.082,30.260 329.178,45.845 329.104 L 67.400 329.000 67.400 311.000 L 67.400 293.000 45.570 292.897 C 33.564 292.840,23.619 292.915,23.470 293.063 M67.104 310.900 L 67.000 328.600 45.826 328.704 C 29.152 328.785,24.584 328.700,24.332 328.304 C 24.156 328.027,24.009 320.015,24.006 310.500 L 24.000 293.200 45.604 293.200 L 67.208 293.200 67.104 310.900 M210.976 308.918 C 210.867 309.202,210.828 312.127,210.889 315.418 L 211.000 321.400 290.195 321.400 C 369.080 321.400,369.390 321.397,369.516 320.600 C 369.603 320.052,369.534 319.958,369.297 320.301 C 369.022 320.700,352.921 320.781,290.176 320.701 L 211.400 320.600 211.400 315.000 L 211.400 309.400 290.500 309.400 C 353.513 309.400,369.600 309.298,369.600 308.900 C 369.600 308.149,211.265 308.166,210.976 308.918 M226.889 332.731 C 226.503 332.980,226.405 334.486,226.489 338.831 L 226.600 344.600 232.910 344.710 L 239.221 344.820 239.110 338.710 L 239.000 332.600 233.200 332.500 C 230.010 332.445,227.170 332.549,226.889 332.731 M321.871 332.662 C 321.132 333.402,321.586 344.364,322.374 344.786 C 323.209 345.233,351.489 345.380,353.110 344.945 C 354.013 344.703,354.019 344.650,353.910 338.651 L 353.800 332.600 337.971 332.495 C 329.265 332.438,322.020 332.513,321.871 332.662 M238.167 333.043 C 238.702 333.248,238.800 334.144,238.800 338.843 L 238.800 344.400 233.000 344.400 L 227.200 344.400 227.200 338.867 C 227.200 335.823,227.320 333.213,227.467 333.067 C 227.800 332.733,237.306 332.712,238.167 333.043 M353.511 338.700 L 353.622 344.400 337.811 344.400 L 322.000 344.400 322.000 338.867 C 322.000 335.823,322.122 333.211,322.271 333.062 C 322.421 332.913,329.486 332.838,337.971 332.895 L 353.400 333.000 353.511 338.700 M23.865 341.703 C 23.259 342.146,23.190 342.902,23.288 348.003 L 23.400 353.800 29.700 353.910 L 36.000 354.020 36.000 347.853 C 36.000 342.598,35.906 341.650,35.367 341.443 C 34.116 340.963,24.583 341.178,23.865 341.703 M47.647 341.744 C 47.324 342.133,47.212 344.099,47.289 348.055 L 47.400 353.800 53.510 353.910 L 59.620 354.021 59.510 347.710 L 59.400 341.400 53.758 341.289 C 49.283 341.202,48.019 341.296,47.647 341.744 M71.238 341.755 C 70.926 342.131,70.813 344.159,70.889 348.055 L 71.000 353.800 77.200 353.800 L 83.400 353.800 83.511 348.055 C 83.653 340.743,84.073 341.200,77.200 341.200 C 72.998 341.200,71.589 341.331,71.238 341.755 M95.289 341.531 C 94.903 341.780,94.805 343.325,94.889 347.830 L 95.000 353.800 101.110 353.910 L 107.220 354.021 107.110 347.710 L 107.000 341.400 101.400 341.300 C 98.320 341.245,95.570 341.349,95.289 341.531 M118.814 341.974 C 118.375 342.795,118.232 352.296,118.643 353.367 C 118.849 353.905,119.776 354.000,124.800 354.000 C 131.795 354.000,131.200 354.582,131.200 347.741 C 131.200 340.837,131.555 341.200,124.800 341.200 C 119.701 341.200,119.193 341.266,118.814 341.974 M142.700 341.632 C 142.089 341.988,142.000 342.716,142.000 347.387 C 142.000 354.648,141.349 354.000,148.643 354.000 L 154.800 354.000 154.800 347.843 C 154.800 342.597,154.706 341.650,154.167 341.443 C 153.109 341.037,143.448 341.196,142.700 341.632 M166.447 341.744 C 166.124 342.133,166.012 344.099,166.089 348.055 L 166.200 353.800 172.310 353.910 L 178.420 354.021 178.310 347.710 L 178.200 341.400 172.558 341.289 C 168.083 341.202,166.819 341.296,166.447 341.744 M35.516 347.000 C 35.690 354.217,36.203 353.643,29.690 353.511 L 24.200 353.400 24.087 348.221 C 23.939 341.367,23.381 341.957,29.892 342.089 L 35.400 342.200 35.516 347.000 M59.200 347.800 L 59.200 353.600 53.643 353.600 C 47.064 353.600,47.600 354.147,47.600 347.434 C 47.600 341.477,47.016 342.000,53.667 342.000 L 59.200 342.000 59.200 347.800 M82.800 347.811 L 82.800 353.623 77.300 353.511 L 71.800 353.400 71.687 348.221 C 71.539 341.410,70.999 342.000,77.387 342.000 L 82.800 342.000 82.800 347.811 M106.711 347.700 L 106.600 353.400 101.231 353.512 C 94.778 353.647,95.214 354.077,95.206 347.567 C 95.199 341.457,94.607 342.000,101.278 342.000 L 106.822 342.000 106.711 347.700 M130.400 347.811 L 130.400 353.622 124.700 353.511 L 119.000 353.400 118.887 348.221 C 118.739 341.400,118.170 342.000,124.787 342.000 L 130.400 342.000 130.400 347.811 M154.200 347.800 L 154.200 353.400 148.600 353.400 L 143.000 353.400 142.887 348.221 C 142.739 341.367,142.181 341.957,148.692 342.089 L 154.200 342.200 154.200 347.800 M178.000 347.800 L 178.000 353.600 172.443 353.600 C 165.864 353.600,166.400 354.147,166.400 347.434 C 166.400 341.477,165.816 342.000,172.467 342.000 L 178.000 342.000 178.000 347.800 " stroke="none" fill="#908271" fill-rule="evenodd"></path></g></svg>